<svg width="200" height="200" viewBox="0 0 200 200" xmlns="http://www.w3.org/2000/svg">
  <!-- Outer circle -->
  <circle cx="100" cy="100" r="98" fill="none" stroke="black" stroke-width="4"/>
  
  <!-- Inner decorative ring -->
  <circle cx="100" cy="100" r="88" fill="none" stroke="black" stroke-width="1"/>
  <circle cx="100" cy="100" r="85" fill="none" stroke="black" stroke-width="1"/>
  
  <!-- Main yin-yang wave design -->
  <g fill="black">
    <!-- Left temple silhouette -->
    <path d="M45 65 L50 50 L55 65 L60 50 L65 65 L70 55 L75 65 L45 65 Z"/>
    
    <!-- Main wave curves -->
    <path d="M30 100 Q70 60, 100 100 Q130 140, 170 100 Q130 60, 100 100 Q70 140, 30 100 Z"/>
    
    <!-- Yin-yang dot -->
    <circle cx="100" cy="85" r="8" fill="white"/>
    <circle cx="100" cy="115" r="8" fill="black"/>
    <circle cx="100" cy="115" r="3" fill="white"/>
  </g>
  
  <!-- Text along top curve -->
  <path id="top-curve" d="M 30 100 A 70 70 0 0 1 170 100" fill="none" stroke="none"/>
  <text font-family="Arial, sans-serif" font-size="12" font-weight="bold" letter-spacing="2">
    <textPath href="#top-curve" startOffset="5%">ULUWATU SURF SCHOOL</textPath>
  </text>
  
  <!-- Text along bottom curve -->
  <path id="bottom-curve" d="M 170 100 A 70 70 0 0 1 30 100" fill="none" stroke="none"/>
  <text font-family="Arial, sans-serif" font-size="14" font-weight="bold" letter-spacing="6">
    <textPath href="#bottom-curve" startOffset="43%">BALI</textPath>
  </text>
</svg>